<svg width="28" height="29" xmlns="http://www.w3.org/2000/svg" xmlns:xlink="http://www.w3.org/1999/xlink" xml:space="preserve" overflow="hidden"><g transform="translate(-1145 -525)"><path d="M22.1667 8.16667 18.6667 8.16667 18.6667 7C18.6667 4.42267 16.5773 2.33333 14 2.33333 11.4227 2.33333 9.33333 4.42267 9.33333 7L9.33333 8.16667 5.83333 8.16667C5.18901 8.16667 4.66667 8.68901 4.66667 9.33333L4.66667 22.1667C4.66667 24.0997 6.23368 25.6667 8.16667 25.6667L19.8333 25.6667C21.7664 25.6667 23.3333 24.0997 23.3333 22.1667L23.3333 9.33333C23.3333 8.68901 22.811 8.16667 22.1667 8.16667ZM11.6667 7C11.6667 5.71133 12.7113 4.66667 14 4.66667 15.2887 4.66667 16.3333 5.71133 16.3333 7L16.3333 8.16667 11.6667 8.16667ZM21 22.1667C21 22.811 20.4777 23.3333 19.8333 23.3333L8.16667 23.3333C7.52234 23.3333 7 22.811 7 22.1667L7 10.5 9.33333 10.5 9.33333 11.6667C9.33333 12.311 9.85566 12.8333 10.5 12.8333 11.1443 12.8333 11.6667 12.311 11.6667 11.6667L11.6667 10.5 16.3333 10.5 16.3333 11.6667C16.3333 12.311 16.8556 12.8333 17.5 12.8333 18.1444 12.8333 18.6667 12.311 18.6667 11.6667L18.6667 10.5 21 10.5Z" fill="#2FB3FF" transform="matrix(1 0 0 1.03571 1145 525)"/></g></svg>