<svg width="29" height="28" viewBox="0 0 29 28" fill="none" xmlns="http://www.w3.org/2000/svg">
<path d="M22.9582 12.8333H15.7082V5.83329C15.7082 5.18897 15.1673 4.66663 14.4999 4.66663C13.8325 4.66663 13.2915 5.18897 13.2915 5.83329V12.8333H6.04157C5.37424 12.8333 4.83325 13.3556 4.83325 14C4.83325 14.6444 5.37424 15.1667 6.04157 15.1667H13.2915V22.1667C13.2915 22.811 13.8325 23.3333 14.4999 23.3333C15.1673 23.3333 15.7082 22.811 15.7082 22.1667V15.1667H22.9582C23.6255 15.1667 24.1665 14.6444 24.1665 14C24.1665 13.3556 23.6255 12.8333 22.9582 12.8333Z" fill="#00BCFF" fill-opacity="0.3"/>
</svg>
