<svg viewBox="0 0 24 24" xmlns="http://www.w3.org/2000/svg" xmlns:xlink="http://www.w3.org/1999/xlink" id="Layer_1" overflow="hidden"><path d="M22.2647 2.42773C21.6845 1.94512 20.8861 1.82055 20.1865 2.10352L2.26562 9.33887C1.22217 9.76818 0.724312 10.9621 1.15363 12.0055 1.37586 12.5457 1.81864 12.9649 2.37012 13.1572L5.99512 14.418 8.01562 21.0996C8.04308 21.1889 8.08293 21.2738 8.134 21.352 8.14175 21.364 8.15268 21.3729 8.16092 21.3846 8.21993 21.4669 8.29123 21.5397 8.37235 21.6003 8.39542 21.6179 8.41751 21.6344 8.44217 21.65 8.5371 21.713 8.64224 21.7591 8.7529 21.7861L8.76474 21.7871 8.77145 21.79C8.83799 21.8035 8.9057 21.8104 8.9736 21.8105 8.98013 21.8105 8.98593 21.8074 8.9924 21.8073 9.09486 21.8055 9.19643 21.7878 9.29349 21.755 9.31607 21.7473 9.33542 21.7344 9.35733 21.7251 9.42971 21.6951 9.49828 21.6567 9.56162 21.6106 9.61234 21.5678 9.66308 21.5251 9.71384 21.4824L12.416 18.499 16.4463 21.6211C16.8011 21.8973 17.2378 22.0475 17.6875 22.0478 18.6586 22.0466 19.4961 21.3655 19.6953 20.415L22.958 4.39844C23.1087 3.66389 22.8421 2.90613 22.2647 2.42773ZM9.37012 14.7363C9.23146 14.8744 9.13668 15.0504 9.09766 15.2422L8.78815 16.7462 8.00409 14.1531 12.0693 12.0362ZM17.6719 20.04 12.9092 16.3505C12.496 16.0313 11.9067 16.0831 11.5557 16.4697L10.6903 17.4249 10.9961 15.9384 18.0791 8.85544C18.4698 8.46528 18.4702 7.83227 18.08 7.44158 17.7713 7.13241 17.2975 7.05956 16.9101 7.26169L6.74487 12.5543 3.02051 11.1914 20.999 3.999Z" fill="#2FB3FF"/></svg>