<svg viewBox="0 0 24 24" xmlns="http://www.w3.org/2000/svg" xmlns:xlink="http://www.w3.org/1999/xlink" overflow="hidden"><path d="M14 12.5 13 12.5 13 11.5C13 10.9477 12.5523 10.5 12 10.5 11.4477 10.5 11 10.9477 11 11.5L11 12.5 10 12.5C9.44771 12.5 9 12.9477 9 13.5 9 14.0523 9.44771 14.5 10 14.5L11 14.5 11 15.5C11 16.0523 11.4477 16.5 12 16.5 12.5523 16.5 13 16.0523 13 15.5L13 14.5 14 14.5C14.5523 14.5 15 14.0523 15 13.5 15 12.9477 14.5523 12.5 14 12.5ZM19 5.5 12.72 5.5 12.4 4.5C11.9748 3.29735 10.8356 2.49508 9.56 2.5L5 2.5C3.34315 2.5 2 3.84315 2 5.5L2 18.5C2 20.1569 3.34315 21.5 5 21.5L19 21.5C20.6569 21.5 22 20.1569 22 18.5L22 8.5C22 6.84315 20.6569 5.5 19 5.5ZM20 18.5C20 19.0523 19.5523 19.5 19 19.5L5 19.5C4.44772 19.5 4 19.0523 4 18.5L4 5.5C4 4.94772 4.44772 4.5 5 4.5L9.56 4.5C9.98992 4.49889 10.3724 4.77269 10.51 5.18L11.05 6.82C11.1876 7.22731 11.5701 7.50111 12 7.5L19 7.5C19.5523 7.5 20 7.94772 20 8.5Z" fill="#2FB3FF"/></svg>