<svg viewBox="0 0 24 24" xmlns="http://www.w3.org/2000/svg" xmlns:xlink="http://www.w3.org/1999/xlink" overflow="hidden"><path d="M13.41 12 19.71 5.71C20.1021 5.31788 20.1021 4.68212 19.71 4.29 19.3179 3.89788 18.6821 3.89788 18.29 4.29L12 10.59 5.71 4.29C5.31788 3.89788 4.68212 3.89788 4.29 4.29 3.89788 4.68212 3.89788 5.31788 4.29 5.71L10.59 12 4.29 18.29C3.89788 18.6789 3.89528 19.3121 4.2842 19.7042 4.28613 19.7061 4.28806 19.7081 4.29 19.71 4.67892 20.1021 5.31208 20.1047 5.7042 19.7158 5.70614 19.7139 5.70808 19.7119 5.71 19.71L12 13.41 18.29 19.71C18.6789 20.1021 19.3121 20.1047 19.7042 19.7158 19.7061 19.7139 19.7081 19.7119 19.71 19.71 20.1021 19.3211 20.1047 18.6879 19.7158 18.2958 19.7139 18.2939 19.7119 18.2919 19.71 18.29Z" fill="#2FB3FF"/></svg>