<svg viewBox="0 0 24 24" xmlns="http://www.w3.org/2000/svg" xmlns:xlink="http://www.w3.org/1999/xlink" overflow="hidden"><path d="M21.71 20.29 18 16.61C21.1099 12.7325 20.4875 7.06806 16.61 3.95821 12.7325 0.848348 7.06806 1.47067 3.95821 5.34821 0.848348 9.22574 1.47067 14.8901 5.34821 18 8.6384 20.6388 13.3198 20.6388 16.61 18L20.29 21.68C20.6789 22.0721 21.3121 22.0747 21.7042 21.6858 21.7061 21.6839 21.7081 21.6819 21.71 21.68 22.0847 21.2924 22.0847 20.6776 21.71 20.29ZM11 18C7.13401 18 4 14.866 4 11 4 7.13401 7.13401 4 11 4 14.866 4 18 7.13401 18 11 18 14.866 14.866 18 11 18Z" fill="#2FB3FF"/></svg>