<svg width="29" height="28" xmlns="http://www.w3.org/2000/svg" xmlns:xlink="http://www.w3.org/1999/xlink" xml:space="preserve" overflow="hidden"><g transform="translate(-433 -443)"><path d="M22.1667 12.8333 15.1667 12.8333 15.1667 5.83333C15.1667 5.18901 14.6444 4.66667 14 4.66667 13.3556 4.66667 12.8333 5.18901 12.8333 5.83333L12.8333 12.8333 5.83333 12.8333C5.18901 12.8333 4.66667 13.3556 4.66667 14 4.66667 14.6444 5.18901 15.1667 5.83333 15.1667L12.8333 15.1667 12.8333 22.1667C12.8333 22.811 13.3556 23.3333 14 23.3333 14.6444 23.3333 15.1667 22.811 15.1667 22.1667L15.1667 15.1667 22.1667 15.1667C22.811 15.1667 23.3333 14.6444 23.3333 14 23.3333 13.3556 22.811 12.8333 22.1667 12.8333Z" fill="#2FB3FF" transform="matrix(1.03571 0 0 1 433 443)"/></g></svg>