<svg viewBox="0 0 24 24" xmlns="http://www.w3.org/2000/svg" xmlns:xlink="http://www.w3.org/1999/xlink" overflow="hidden"><path d="M10 18C10.5523 18 11 17.5523 11 17L11 11C11 10.4477 10.5523 10 10 10 9.44771 10 9 10.4477 9 11L9 17C9 17.5523 9.44771 18 10 18ZM20 6 16 6 16 5C16 3.34315 14.6569 2 13 2L11 2C9.34315 2 8 3.34315 8 5L8 6 4 6C3.44772 6 3 6.44772 3 7 3 7.55228 3.44772 8 4 8L5 8 5 19C5 20.6569 6.34315 22 8 22L16 22C17.6569 22 19 20.6569 19 19L19 8 20 8C20.5523 8 21 7.55228 21 7 21 6.44772 20.5523 6 20 6ZM10 5C10 4.44772 10.4477 4 11 4L13 4C13.5523 4 14 4.44772 14 5L14 6 10 6ZM17 19C17 19.5523 16.5523 20 16 20L8 20C7.44772 20 7 19.5523 7 19L7 8 17 8ZM14 18C14.5523 18 15 17.5523 15 17L15 11C15 10.4477 14.5523 10 14 10 13.4477 10 13 10.4477 13 11L13 17C13 17.5523 13.4477 18 14 18Z" fill="#2FB3FF"/></svg>