<svg viewBox="0 0 24 24" xmlns="http://www.w3.org/2000/svg" xmlns:xlink="http://www.w3.org/1999/xlink" overflow="hidden"><path d="M15.71 8.29C15.3211 7.89788 14.6879 7.89528 14.2958 8.2842 14.2939 8.28613 14.2919 8.28806 14.29 8.29L12 10.59 9.71 8.29C9.31788 7.89788 8.68212 7.89788 8.29 8.29 7.89788 8.68212 7.89788 9.31788 8.29 9.71L10.59 12 8.29 14.29C7.89788 14.6789 7.89528 15.3121 8.2842 15.7042 8.28613 15.7061 8.28806 15.7081 8.29 15.71 8.67892 16.1021 9.31208 16.1047 9.7042 15.7158 9.70614 15.7139 9.70808 15.7119 9.71 15.71L12 13.41 14.29 15.71C14.6789 16.1021 15.3121 16.1047 15.7042 15.7158 15.7061 15.7139 15.7081 15.7119 15.71 15.71 16.1021 15.3211 16.1047 14.6879 15.7158 14.2958 15.7139 14.2939 15.7119 14.2919 15.71 14.29L13.41 12 15.71 9.71C16.1021 9.32108 16.1047 8.68792 15.7158 8.2958 15.7139 8.29386 15.7119 8.29192 15.71 8.29ZM19 2 5 2C3.34315 2 2 3.34315 2 5L2 19C2 20.6569 3.34315 22 5 22L19 22C20.6569 22 22 20.6569 22 19L22 5C22 3.34315 20.6569 2 19 2ZM20 19C20 19.5523 19.5523 20 19 20L5 20C4.44772 20 4 19.5523 4 19L4 5C4 4.44772 4.44772 4 5 4L19 4C19.5523 4 20 4.44772 20 5Z" fill="#2FB3FF"/></svg>